<?xml version="1.0" standalone="no"?>
<!DOCTYPE svg PUBLIC "-//W3C//DTD SVG 20010904//EN"
 "http://www.w3.org/TR/2001/REC-SVG-20010904/DTD/svg10.dtd">
<svg version="1.0" xmlns="http://www.w3.org/2000/svg"
 width="1536.000000pt" height="1024.000000pt" viewBox="0 0 1536.000000 1024.000000"
 preserveAspectRatio="xMidYMid meet">

<g transform="translate(0.000000,1024.000000) scale(0.100000,-0.100000)"
fill="#000000" stroke="none">
<path d="M7640 7197 c-25 -18 -171 -118 -325 -222 -154 -104 -338 -229 -410
-278 -71 -49 -136 -92 -142 -94 -10 -4 -13 24 -13 118 l0 124 -140 -3 -140 -3
0 -217 -1 -217 -56 -38 c-31 -21 -158 -107 -282 -191 -124 -84 -252 -171 -284
-194 l-59 -41 434 -289 434 -290 -4 -68 c-2 -38 -7 -72 -11 -76 -3 -4 -65 32
-136 81 -581 393 -1091 734 -1109 743 -19 8 -60 -16 -311 -187 -159 -108 -297
-201 -307 -206 -17 -9 -18 -3 -18 111 l0 120 -105 0 -105 0 0 -193 0 -193
-157 -106 c-260 -175 -367 -249 -383 -264 -12 -12 7 -14 138 -14 l152 0 0
-516 c0 -480 1 -516 17 -510 9 4 56 19 105 33 l88 27 0 492 0 493 23 12 c12 7
208 138 435 291 352 238 415 277 432 268 15 -8 391 -256 822 -543 l48 -32 0
-372 0 -373 23 0 c12 -1 166 -2 343 -4 l321 -3 7 120 c3 66 6 239 6 384 l0
263 183 1 c145 0 178 3 164 12 -115 74 -754 501 -789 527 l-47 35 0 135 0 135
187 124 c241 160 649 435 857 579 90 61 169 112 175 112 13 0 732 -482 1112
-746 l97 -67 3 -124 3 -124 -75 -57 c-72 -55 -110 -85 -314 -251 -50 -40 -115
-92 -143 -115 -51 -40 -63 -59 -44 -70 5 -3 42 13 82 36 106 59 633 376 839
503 96 59 203 125 238 145 l63 37 -108 75 c-135 93 -254 174 -763 518 -223
150 -488 330 -590 399 -102 68 -234 158 -293 198 -60 40 -111 73 -115 73 -4 0
-27 -15 -52 -33z m-2234 -1298 c22 -25 9 -54 -26 -54 -35 0 -48 29 -26 54 11
12 22 21 26 21 4 0 15 -9 26 -21z"/>
<path d="M7374 6147 c-2 -7 -3 -71 -2 -143 l3 -129 143 -3 143 -3 -3 143 -3
143 -138 3 c-107 2 -139 0 -143 -11z"/>
<path d="M7747 6154 c-4 -4 -7 -70 -7 -146 l0 -139 143 3 142 3 0 140 0 140
-136 3 c-74 1 -138 -1 -142 -4z"/>
<path d="M9614 5855 c-208 -132 -531 -333 -1024 -637 l-215 -133 -3 -427 -2
-428 22 -4 c13 -3 88 -15 168 -26 80 -12 208 -32 285 -45 76 -14 143 -25 147
-25 4 0 8 222 8 494 l0 494 133 88 c274 181 696 454 701 454 2 0 191 -123 419
-274 l415 -274 1 -604 1 -603 105 -3 105 -3 0 595 0 595 152 3 153 3 -675 450
-676 451 -220 -141z m240 -11 c9 -8 16 -19 16 -24 0 -10 -29 -40 -39 -40 -13
0 -31 24 -31 40 0 16 18 40 31 40 4 0 15 -7 23 -16z"/>
<path d="M7377 5784 c-4 -4 -7 -67 -7 -141 l0 -133 145 0 146 0 -3 138 -3 137
-136 3 c-74 1 -138 -1 -142 -4z"/>
<path d="M7740 5650 l0 -140 146 0 146 0 -5 138 -4 137 -142 3 -141 3 0 -141z"/>
<path d="M5140 5115 l0 -105 104 0 105 0 6 43 c3 23 5 70 3 104 l-3 63 -107 0
-108 0 0 -105z"/>
<path d="M5420 5115 l0 -105 104 0 103 0 7 88 c10 126 14 122 -110 122 l-104
0 0 -105z"/>
<path d="M9597 5183 c-4 -3 -7 -51 -7 -105 l0 -98 105 0 105 0 0 105 0 105
-98 0 c-54 0 -102 -3 -105 -7z"/>
<path d="M9860 5085 l0 -105 105 0 105 0 0 105 0 105 -105 0 -105 0 0 -105z"/>
<path d="M7537 5073 c-4 -3 -7 -172 -7 -374 l0 -368 33 -5 c17 -3 84 -10 147
-16 63 -6 132 -13 153 -17 l37 -6 0 397 0 396 -178 0 c-98 0 -182 -3 -185 -7z"/>
<path d="M5140 4835 l0 -105 104 0 c58 0 107 4 111 9 3 6 2 53 -1 105 l-7 96
-103 0 -104 0 0 -105z"/>
<path d="M5420 4835 l0 -105 105 0 105 0 0 105 0 105 -105 0 -105 0 0 -105z"/>
<path d="M9597 4914 c-4 -4 -7 -52 -7 -106 l0 -98 105 0 106 0 -3 103 -3 102
-95 3 c-53 1 -99 0 -103 -4z"/>
<path d="M9867 4913 c-4 -3 -7 -51 -7 -105 l0 -98 105 0 105 0 0 105 0 105
-98 0 c-54 0 -102 -3 -105 -7z"/>
<path d="M5985 4214 c-22 -2 -112 -9 -200 -14 -641 -43 -1267 -177 -1784 -382
-107 -43 -246 -108 -200 -94 51 15 402 88 504 105 167 28 441 61 690 83 219
19 929 16 1220 -6 496 -36 1124 -112 1955 -235 508 -76 966 -130 1365 -161
232 -19 323 -21 650 -17 399 5 518 15 801 62 250 42 536 121 679 187 l40 18
-70 -5 c-196 -13 -784 -17 -970 -6 -345 21 -763 68 -1075 121 -1187 202 -1679
271 -2355 326 -177 14 -1141 28 -1250 18z"/>
</g>
</svg>
